<?xml version="1.0" encoding="UTF-8"?>
<svg xmlns="http://www.w3.org/2000/svg" version="1.1" viewBox="0 0 6815.2 1658.5">
  <defs>
    <style>
      .cls-1 {
        fill: #01373d;
      }
    </style>
  </defs>
  <!-- Generator: Adobe Illustrator 28.6.0, SVG Export Plug-In . SVG Version: 1.2.0 Build 709)  -->
  <g>
    <g id="Camada_1">
      <g>
        <path class="cls-1" d="M5331.1,906.7c-8.2-88.8-25.5-173.2-55.9-250.6-59.1-150.6-151.3-233.2-265.5-263.3-71-18.7-142.5-17.9-213.5,9.2-53.9,20.6-102.7,54.6-146.4,104-51.5,58.1-92.7,129.4-125.7,211.9-28.7,71.5-52.9,145.5-71.1,224-6.5,28.1-11.9,56.9-19.2,84.6,0,0,0,.2,0,.3-2.7,10.1-17.4,9.8-20.4-.2-.4-1.3-.8-2.6-1.2-3.9-.4-1.4-.1-3.3-.2-4.9-4.2-123.5-18.7-243.3-60-353.3-35.5-94.6-86-166.9-151.8-215.7-53.2-39.4-110-57.3-169-65.5-61.1-8.5-121.2,0-179.4,26-70.3,31.4-130.6,88.8-180.9,167.9-80.7,127-126.6,281.3-162.1,444,0,.1,0,.2,0,.3-2.4,10.6-19,10.4-21.2-.2-.3-1.4,0-16.4,0-22.2,0-184.1-.2-368.3.3-552.4,0-9.4-.8-16.3-2.7-21.3-.2-.5-.4-.9-.6-1.4,0,0,0-.2-.1-.3-2.7-5.8-7.7-9-17.2-8.7-.2,0-.5,0-.7,0-75.2,1-150.5.3-225.7.5-2.9,0-5.4,0-7.6.1-21.8-2.2-30.4,4.4-30.2,32.9.8,117.6-15,232.6-35.5,345.6-15,82.8-36.8,163.5-58.7,243.5-29.5,108.1-71.4,206.1-129.6,288.8-53.8,76.5-117.2,125.6-195.4,128.9-63.2,2.7-121.2-16.9-167.3-82.6-50.9-72.4-69-166.2-79.2-262.3-7.1-66.9-7.9-135.5-8.4-203.4-1.2-151.7-.3-303.5-.4-455.3,0-34.8-1.1-36.3-26.1-36.3-76.9,0-153.8,0-230.7,0-23.2,0-25.2,2.9-25.2,35.5,0,175-.5,350,.2,524.9.4,107.1,7.7,212.7,35.1,314.5,24.4,90.8,60.2,169.8,112.5,232.7,38.5,46.2,81.4,79.1,128,100.7,21.4,9.9,43.6,17.4,66.5,22.8,85.8,19.9,169,16.6,248.9-22.8,20.8-10.2,41.4-22.9,61.7-38.3,109-82.4,177.8-214.5,227.8-368.4,21.9-67.3,37-138.9,55.9-208.1,0,0,0-.2,0-.2,2.9-10.2,17.8-9.2,20.1,1.1.2.9.4,1.8.6,2.8,1.3,7,.3,14.8.3,22.3,0,184.9,0,369.9,0,554.8,0,27.9,1.5,33.2,17.2,34.1,2,.1,4.3.2,6.9.2.5,0,1.1,0,1.6,0,2.8.5,6,.5,9.8,0,73.1.1,146.2,0,219.2,0,2.9,0,5.4,0,7.7,0,3.2.3,5.9.3,8.3-.2,1.7-.3,3.3-.8,4.6-1.6,3.7-1.5,5.6-4.4,6.6-9.8.8-3,1.4-6.5,1.8-10.8,5.9-79,10.3-158.4,19.4-236.7,8.3-71.6,19-143.1,34-212.2,16.2-74.5,36.1-147.8,58.8-218.6,32.6-101.7,74.9-194.2,136.4-264.9,69.2-79.6,145.6-107.8,231.7-75.2,61.4,23.3,103,81,129.1,162.3,29.5,91.9,40.2,191.3,41.2,291.9,1.7,180,.8,360,1.1,539.9,0,29.3.2,34.5,14,35.5,2.9.2,6.5.2,10.8.2,74.7,0,149.4,0,224,0,3.4,0,6.2,0,8.7-.2,14.9-.9,14.4-6,16.6-36.3,6.7-91.3,10.6-183.7,23.8-273.1,13.9-94,35.6-185.9,56.9-277.2,21.6-92.8,53.5-178.6,94.2-256.5,66.1-126.8,147.8-211,263-198.3,58.5,6.4,107.5,40.6,144.3,109.5,35.7,66.7,50.5,146,58.8,226.8,7,68.6,8.4,138.8,9,208.3,1.3,138.5.4,277,.4,415.5,0,17.4.3,34.8,0,52.3-.3,25.1,6.4,27.7,33.4,27.7,71.1,0,129.3-1.6,207.4-.1,27,.5,35.1,0,34.9-27.1-.4-58.9.7-117.8-.3-176.7-2.8-170.6,7.5-341.6-8.1-511.8Z"/>
        <path class="cls-1" d="M6803.6,926.7c-11.1-75.8-31-146.3-62.8-210.3-49.2-99-123.2-182.9-218.5-239.7-108.4-64.6-238.7-94.1-364.2-96-118.2-1.7-234.9,20-343.8,66.6-102.3,43.8-193.4,121.9-245,221.4-17.3,33.4-29.2,69.8-35.5,106.8-5.3,30.7-4.1,31.5,20.8,31.5,83,0,166,0,248.9,0,23.7,0,25.5-4.8,32.1-35.8,7.1-33,14.7-67.2,27.7-96.4,38.5-86.7,98.3-137.9,169.4-167.9,108.9-45.9,255-45.8,351,29.8,7.3,5.7,14.3,11.9,20.8,18.4,38,37.9,62.1,87.2,78.8,137.6,15,45.2,23.2,100.4-9.2,140.3-15.4,19.1-41,31.6-62.5,42.5-24.8,12.6-50.8,22.6-77.3,31-72.4,22.7-148.5,35.1-223.3,47.6-134.8,22.6-274.1,44.2-398.7,103.6-13.2,6.3-26.2,13.2-38.9,20.6-77.1,45.5-138.1,116.1-148,207.6-15.9,146.3,32.4,252.4,137.5,310.1,20.1,11.1,41.4,20.1,63.4,27.6,85.1,29,181.3,33.4,268.7,28.2,54.7-3.2,111-10.5,163.7-26,2.3-.7,4.5-1.5,6.8-2.2,50.2-15.8,96.6-41.9,138.1-74.2,35.1-27.3,66.8-59.1,94.6-93.8,21.7-27.1,41.1-56,58.4-86.1,10.6-18.4,20.6-37.4,32-54.9,0,0,0-.1.1-.2,5.9-8.7,19.5-5.7,22.3,4.4.5,1.9.9,4.9,1,6.9.4,8.2.8,13.9.8,21.3,0,80.4,0,160.9,0,241.3,0,29,1.2,34.3,17.9,35.2h266.9c14.8-.8,15.2-5.6,15.3-33.8.1-98.7,8.1-541.3-9.7-663.2ZM6512.8,979.4c-4.6,145.8-53.3,264.3-127.8,367-35.6,49.2-77.9,94-127.3,129.5-45.7,32.9-98.3,60.7-154.4,69.5-97.4,15.4-202.9-19.4-246.7-112.8-30.9-66-31.2-144.8-1.4-211.3,49.6-111,181.8-150.1,289.7-178.4,63.2-16.6,217-43.1,352-127.6,11.5-7.2,15.3-2.2,15.8,11.9.5,17.4.1,34.8.1,52.2Z"/>
        <path class="cls-1" d="M2050.6,37.6c0-36.6-.3-37-31.2-37-88.8,0-177.6,0-266.4,0q-31.6,0-31.6,38.1c0,335.9,0,671.7,0,1007.6h-1.8c0,185,0,358,0,542.9,0,31.5,2.2,34.2,27.9,34.2,89.4.1,178.7,0,268.1,0,20.8,0,34.9,2.2,34.9-12.3s0-3.7,0-4.2c0-1.8,0-638.8,0-867.7,0-233.9,0-467.8,0-701.6Z"/>
        <path class="cls-1" d="M1523.5,985.5c-1.8-77.8-12.9-154.6-37.4-229.2-27.4-83.8-67.4-156.5-123.2-215.9-102-108.7-225.2-151.8-357-162.5-139.6-11.3-266.7,8.4-395.7,74.4-88.8,45.4-176.5,117.1-242.7,203.3-4.6,6-9.3,12.4-14.8,17.1-11.8,10.1-21.1,4.9-22.8-12.5-.8-8.2-.3-16.6-.3-24.9,0-200.7-.3-401.3.4-602,0-24.1-4.5-33.6-26.1-33.3C212.5,1.3,120.9.5,29.4.6.2.6,0,1,0,36.9,0,294.8,0,552.7,0,810.6c0,65,0,130.1,0,195.1,0,65,0,130.1,0,195.1,0,257.9,0,125.6,0,383.4,0,36,.2,36.3,29.4,36.3,91.5.1,183.1-.7,274.6.6,21.6.3,26.2-9.2,26.1-33.3-.7-200.7-.4-11.1-.4-211.8,0-8.3-.4-16.7.3-24.9,1.7-17.4,11-22.6,22.8-12.5,5.5,4.7,10.2,11.1,14.8,17.1,66.2,86.1,153.9,157.9,242.7,203.3,62.1,31.8,123.7,52.7,186.5,64.7,67.7,13,136.7,15.5,209.1,9.6,24.7-2,49.1-5.2,73.1-9.6,104.1-19.5,201-64.5,283.9-152.8,55.7-59.4,95.7-132.2,123.2-215.9,24.4-74.6,35.6-151.4,37.4-229.2h.2c.1-6.7.1-13.5.1-20.2,0-6.7,0-13.5-.1-20.2h-.2ZM1197.3,1025.9c-2.9,209.3-76.4,440.9-283.7,490.8-80.8,19.4-160.8,5.8-236.9-31.7-107.4-53-203.2-127.5-278.6-236.2-40.8-58.9-72.5-124.2-82.4-201.8-1.8-14-2.7-27.7-3.1-41.2.4-13.5,1.4-27.2,3.1-41.2,9.8-77.7,41.6-143,82.4-201.8,75.4-108.7,171.2-183.2,278.6-236.2,76.1-37.5,156.1-51.2,236.9-31.7,207.3,49.9,280.8,281.5,283.7,490.8,0,6.8.1,13.5,0,20.2,0,6.7,0,13.4,0,20.2Z"/>
      </g>
    </g>
  </g>
</svg>