<svg width="1247" height="387" viewBox="0 0 1247 387" fill="none" xmlns="http://www.w3.org/2000/svg">
<circle cx="22.9862" cy="86.657" r="21.9978" fill="#2970FF"/>
<circle cx="67.5471" cy="132.344" r="18.0495" fill="#2970FF"/>
<circle cx="156.66" cy="222.589" r="18.0495" fill="#2970FF"/>
<circle cx="110.971" cy="175.773" r="21.9978" fill="#2970FF"/>
<circle cx="200.309" cy="267.15" r="21.9978" fill="#2970FF"/>
<circle cx="200.871" cy="221.891" r="18.0609" fill="#2970FF"/>
<circle cx="22.4089" cy="176.338" r="16.9214" fill="#2970FF"/>
<circle cx="199.732" cy="176.338" r="16.9214" fill="#2970FF"/>
<circle cx="23.5157" cy="220.332" r="15.7933" fill="#2970FF"/>
<circle cx="67.5489" cy="176.336" r="14.6652" fill="#2970FF" fill-opacity="0.5"/>
<circle cx="156.097" cy="176.899" r="14.1012" fill="#2970FF" fill-opacity="0.5"/>
<circle cx="156.093" cy="268.28" r="12.9731" fill="#2970FF" fill-opacity="0.5"/>
<circle cx="110.976" cy="220.892" r="14.1012" fill="#2970FF" fill-opacity="0.5"/>
<circle cx="68.0987" cy="220.897" r="11.845" fill="#2970FF" fill-opacity="0.5"/>
<circle cx="111.544" cy="267.708" r="7.89665" fill="#2970FF" fill-opacity="0.5"/>
<circle cx="111.544" cy="84.966" r="7.89665" fill="#2970FF" fill-opacity="0.5"/>
<circle cx="67.5416" cy="267.713" r="5.64047" fill="#2970FF" fill-opacity="0.5"/>
<circle cx="156.662" cy="84.9608" r="5.64047" fill="#2970FF" fill-opacity="0.5"/>
<circle cx="110.976" cy="131.777" r="14.1012" fill="#2970FF" fill-opacity="0.5"/>
<circle cx="156.659" cy="132.346" r="12.409" fill="#2970FF" fill-opacity="0.5"/>
<circle cx="68.1025" cy="85.5278" r="12.9731" fill="#2970FF" fill-opacity="0.5"/>
<circle cx="200.839" cy="131.215" r="15.7933" fill="#2970FF"/>
<circle cx="22.9358" cy="267.146" r="12.9731" fill="#2970FF"/>
<circle cx="200.267" cy="85.5278" r="12.9731" fill="#2970FF"/>
<circle cx="23.5484" cy="132.109" r="18.0609" fill="#2970FF"/>
<path d="M452.25 278.238H409.038L336.764 168.817V278.238H293.552V100.84H336.764L409.038 210.766V100.84H452.25V278.238ZM565.562 280.007C548.884 280.007 533.553 276.132 519.57 268.383C505.755 260.633 494.721 249.851 486.466 236.037C478.379 222.054 474.336 206.386 474.336 189.034C474.336 171.681 478.379 156.098 486.466 142.284C494.721 128.469 505.755 117.687 519.57 109.937C533.553 102.188 548.884 98.3131 565.562 98.3131C582.24 98.3131 597.487 102.188 611.301 109.937C625.284 117.687 636.235 128.469 644.153 142.284C652.239 156.098 656.283 171.681 656.283 189.034C656.283 206.386 652.239 222.054 644.153 236.037C636.066 249.851 625.116 260.633 611.301 268.383C597.487 276.132 582.24 280.007 565.562 280.007ZM565.562 240.585C579.713 240.585 591.001 235.868 599.424 226.434C608.016 217 612.312 204.533 612.312 189.034C612.312 173.366 608.016 160.899 599.424 151.634C591.001 142.199 579.713 137.482 565.562 137.482C551.242 137.482 539.786 142.115 531.194 151.381C522.771 160.647 518.559 173.198 518.559 189.034C518.559 204.701 522.771 217.252 531.194 226.687C539.786 235.952 551.242 240.585 565.562 240.585ZM879.313 100.84V278.238H836.101V171.85L796.427 278.238H761.553L721.626 171.597V278.238H678.414V100.84H729.46L779.243 223.654L828.52 100.84H879.313ZM992.377 280.007C975.698 280.007 960.367 276.132 946.384 268.383C932.57 260.633 921.535 249.851 913.28 236.037C905.194 222.054 901.15 206.386 901.15 189.034C901.15 171.681 905.194 156.098 913.28 142.284C921.535 128.469 932.57 117.687 946.384 109.937C960.367 102.188 975.698 98.3131 992.377 98.3131C1009.06 98.3131 1024.3 102.188 1038.12 109.937C1052.1 117.687 1063.05 128.469 1070.97 142.284C1079.05 156.098 1083.1 171.681 1083.1 189.034C1083.1 206.386 1079.05 222.054 1070.97 236.037C1062.88 249.851 1051.93 260.633 1038.12 268.383C1024.3 276.132 1009.06 280.007 992.377 280.007ZM992.377 240.585C1006.53 240.585 1017.82 235.868 1026.24 226.434C1034.83 217 1039.13 204.533 1039.13 189.034C1039.13 173.366 1034.83 160.899 1026.24 151.634C1017.82 142.199 1006.53 137.482 992.377 137.482C978.057 137.482 966.601 142.115 958.009 151.381C949.585 160.647 945.374 173.198 945.374 189.034C945.374 204.701 949.585 217.252 958.009 226.687C966.601 235.952 978.057 240.585 992.377 240.585ZM1169.42 280.007C1156.44 280.007 1144.82 277.901 1134.54 273.69C1124.27 269.478 1116.01 263.245 1109.78 254.99C1103.71 246.735 1100.51 236.795 1100.17 225.17H1146.17C1146.84 231.741 1149.11 236.795 1152.99 240.333C1156.86 243.702 1161.92 245.387 1168.15 245.387C1174.55 245.387 1179.61 243.955 1183.31 241.091C1187.02 238.058 1188.87 233.931 1188.87 228.708C1188.87 224.328 1187.36 220.706 1184.32 217.842C1181.46 214.978 1177.84 212.619 1173.46 210.766C1169.25 208.913 1163.18 206.807 1155.26 204.449C1143.81 200.911 1134.46 197.373 1127.21 193.835C1119.97 190.297 1113.74 185.075 1108.51 178.168C1103.29 171.26 1100.68 162.247 1100.68 151.128C1100.68 134.618 1106.66 121.73 1118.62 112.464C1130.58 103.03 1146.17 98.3131 1165.37 98.3131C1184.91 98.3131 1200.67 103.03 1212.63 112.464C1224.59 121.73 1230.99 134.702 1231.83 151.381H1185.08C1184.75 145.653 1182.64 141.189 1178.77 137.988C1174.89 134.618 1169.92 132.934 1163.86 132.934C1158.63 132.934 1154.42 134.365 1151.22 137.229C1148.02 139.925 1146.42 143.884 1146.42 149.107C1146.42 154.835 1149.11 159.299 1154.51 162.5C1159.9 165.701 1168.32 169.154 1179.78 172.861C1191.23 176.736 1200.5 180.442 1207.57 183.98C1214.82 187.518 1221.05 192.656 1226.27 199.395C1231.5 206.133 1234.11 214.81 1234.11 225.423C1234.11 235.531 1231.5 244.713 1226.27 252.968C1221.22 261.223 1213.81 267.793 1204.04 272.679C1194.26 277.564 1182.72 280.007 1169.42 280.007Z" fill="#2970FF"/>
<path d="M292.122 369.851V319.385H309.174C313.133 319.385 316.369 320.1 318.882 321.529C321.412 322.942 323.285 324.855 324.501 327.27C325.716 329.685 326.324 332.379 326.324 335.353C326.324 338.326 325.716 341.028 324.501 343.46C323.302 345.891 321.445 347.829 318.932 349.275C316.418 350.704 313.199 351.419 309.272 351.419H297.05V345.998H309.075C311.786 345.998 313.962 345.529 315.605 344.593C317.248 343.657 318.439 342.392 319.178 340.798C319.934 339.188 320.312 337.373 320.312 335.353C320.312 333.332 319.934 331.525 319.178 329.931C318.439 328.338 317.24 327.09 315.581 326.186C313.921 325.266 311.72 324.806 308.977 324.806H298.233V369.851H292.122ZM350.35 370.639C346.933 370.639 343.935 369.826 341.355 368.2C338.793 366.573 336.789 364.298 335.343 361.374C333.914 358.45 333.199 355.033 333.199 351.123C333.199 347.18 333.914 343.739 335.343 340.798C336.789 337.858 338.793 335.574 341.355 333.948C343.935 332.322 346.933 331.509 350.35 331.509C353.767 331.509 356.756 332.322 359.319 333.948C361.898 335.574 363.902 337.858 365.332 340.798C366.777 343.739 367.5 347.18 367.5 351.123C367.5 355.033 366.777 358.45 365.332 361.374C363.902 364.298 361.898 366.573 359.319 368.2C356.756 369.826 353.767 370.639 350.35 370.639ZM350.35 365.415C352.945 365.415 355.081 364.75 356.756 363.419C358.432 362.089 359.672 360.339 360.477 358.171C361.282 356.002 361.685 353.653 361.685 351.123C361.685 348.593 361.282 346.236 360.477 344.051C359.672 341.866 358.432 340.1 356.756 338.753C355.081 337.406 352.945 336.733 350.35 336.733C347.754 336.733 345.618 337.406 343.943 338.753C342.267 340.1 341.027 341.866 340.222 344.051C339.417 346.236 339.015 348.593 339.015 351.123C339.015 353.653 339.417 356.002 340.222 358.171C341.027 360.339 342.267 362.089 343.943 363.419C345.618 364.75 347.754 365.415 350.35 365.415ZM383.665 369.851L372.133 332.001H378.244L386.425 360.98H386.819L394.901 332.001H401.111L409.095 360.881H409.489L417.67 332.001H423.781L412.249 369.851H406.532L398.253 340.774H397.661L389.382 369.851H383.665ZM446.051 370.639C442.404 370.639 439.258 369.834 436.613 368.224C433.985 366.598 431.956 364.331 430.527 361.423C429.114 358.499 428.407 355.099 428.407 351.222C428.407 347.345 429.114 343.928 430.527 340.971C431.956 337.997 433.944 335.681 436.49 334.022C439.053 332.346 442.042 331.509 445.459 331.509C447.431 331.509 449.377 331.837 451.299 332.494C453.221 333.151 454.971 334.219 456.548 335.698C458.125 337.16 459.382 339.098 460.318 341.513C461.254 343.928 461.723 346.901 461.723 350.433V352.897H432.547V347.87H455.809C455.809 345.735 455.382 343.829 454.527 342.154C453.69 340.478 452.49 339.156 450.93 338.186C449.386 337.217 447.562 336.733 445.459 336.733C443.143 336.733 441.139 337.307 439.447 338.457C437.771 339.591 436.482 341.069 435.578 342.893C434.675 344.716 434.223 346.671 434.223 348.758V352.109C434.223 354.967 434.716 357.39 435.701 359.378C436.703 361.349 438.092 362.852 439.866 363.887C441.64 364.906 443.702 365.415 446.051 365.415C447.578 365.415 448.958 365.202 450.19 364.774C451.439 364.331 452.515 363.674 453.419 362.803C454.322 361.916 455.02 360.815 455.513 359.501L461.131 361.078C460.54 362.984 459.546 364.659 458.15 366.105C456.753 367.534 455.028 368.651 452.975 369.456C450.922 370.245 448.613 370.639 446.051 370.639ZM470.569 369.851V332.001H476.187V337.718H476.581C477.271 335.845 478.52 334.326 480.327 333.16C482.134 331.993 484.171 331.41 486.438 331.41C486.865 331.41 487.399 331.418 488.04 331.435C488.68 331.451 489.165 331.476 489.494 331.509V337.422C489.296 337.373 488.845 337.299 488.138 337.201C487.448 337.086 486.717 337.028 485.945 337.028C484.105 337.028 482.463 337.414 481.017 338.186C479.588 338.942 478.454 339.993 477.616 341.34C476.795 342.671 476.384 344.191 476.384 345.899V369.851H470.569ZM511.104 370.639C507.457 370.639 504.311 369.834 501.666 368.224C499.038 366.598 497.009 364.331 495.58 361.423C494.167 358.499 493.461 355.099 493.461 351.222C493.461 347.345 494.167 343.928 495.58 340.971C497.009 337.997 498.997 335.681 501.543 334.022C504.106 332.346 507.096 331.509 510.513 331.509C512.484 331.509 514.431 331.837 516.353 332.494C518.275 333.151 520.024 334.219 521.601 335.698C523.178 337.16 524.435 339.098 525.371 341.513C526.308 343.928 526.776 346.901 526.776 350.433V352.897H497.601V347.87H520.862C520.862 345.735 520.435 343.829 519.581 342.154C518.743 340.478 517.544 339.156 515.983 338.186C514.439 337.217 512.615 336.733 510.513 336.733C508.196 336.733 506.192 337.307 504.5 338.457C502.825 339.591 501.535 341.069 500.631 342.893C499.728 344.716 499.276 346.671 499.276 348.758V352.109C499.276 354.967 499.769 357.39 500.755 359.378C501.757 361.349 503.145 362.852 504.919 363.887C506.693 364.906 508.755 365.415 511.104 365.415C512.632 365.415 514.012 365.202 515.244 364.774C516.492 364.331 517.568 363.674 518.472 362.803C519.375 361.916 520.074 360.815 520.566 359.501L526.185 361.078C525.593 362.984 524.599 364.659 523.203 366.105C521.807 367.534 520.082 368.651 518.028 369.456C515.975 370.245 513.667 370.639 511.104 370.639ZM549.914 370.639C546.76 370.639 543.976 369.842 541.561 368.249C539.146 366.639 537.257 364.372 535.893 361.448C534.53 358.507 533.848 355.033 533.848 351.025C533.848 347.049 534.53 343.599 535.893 340.675C537.257 337.751 539.154 335.492 541.586 333.899C544.017 332.305 546.826 331.509 550.013 331.509C552.477 331.509 554.424 331.919 555.853 332.741C557.299 333.546 558.399 334.466 559.155 335.5C559.927 336.519 560.527 337.357 560.954 338.014H561.447V319.385H567.262V369.851H561.644V364.035H560.954C560.527 364.725 559.919 365.596 559.13 366.647C558.342 367.682 557.216 368.61 555.754 369.432C554.292 370.237 552.346 370.639 549.914 370.639ZM550.703 365.415C553.036 365.415 555.007 364.807 556.617 363.592C558.227 362.36 559.451 360.659 560.288 358.491C561.126 356.306 561.545 353.784 561.545 350.926C561.545 348.1 561.134 345.628 560.313 343.509C559.492 341.373 558.276 339.714 556.666 338.531C555.056 337.332 553.068 336.733 550.703 336.733C548.239 336.733 546.185 337.365 544.542 338.63C542.916 339.878 541.692 341.579 540.871 343.731C540.066 345.866 539.663 348.265 539.663 350.926C539.663 353.62 540.074 356.068 540.896 358.269C541.733 360.454 542.965 362.195 544.592 363.493C546.235 364.774 548.272 365.415 550.703 365.415ZM599.025 369.851V319.385H604.84V338.014H605.333C605.76 337.357 606.351 336.519 607.107 335.5C607.879 334.466 608.98 333.546 610.409 332.741C611.855 331.919 613.81 331.509 616.274 331.509C619.461 331.509 622.27 332.305 624.701 333.899C627.132 335.492 629.03 337.751 630.393 340.675C631.757 343.599 632.438 347.049 632.438 351.025C632.438 355.033 631.757 358.507 630.393 361.448C629.03 364.372 627.141 366.639 624.726 368.249C622.311 369.842 619.526 370.639 616.372 370.639C613.941 370.639 611.994 370.237 610.532 369.432C609.07 368.61 607.945 367.682 607.156 366.647C606.368 365.596 605.76 364.725 605.333 364.035H604.643V369.851H599.025ZM604.741 350.926C604.741 353.784 605.16 356.306 605.998 358.491C606.836 360.659 608.06 362.36 609.67 363.592C611.28 364.807 613.251 365.415 615.584 365.415C618.015 365.415 620.044 364.774 621.67 363.493C623.313 362.195 624.545 360.454 625.366 358.269C626.204 356.068 626.623 353.62 626.623 350.926C626.623 348.265 626.212 345.866 625.391 343.731C624.586 341.579 623.362 339.878 621.719 338.63C620.093 337.365 618.048 336.733 615.584 336.733C613.218 336.733 611.23 337.332 609.62 338.531C608.011 339.714 606.795 341.373 605.974 343.509C605.152 345.628 604.741 348.1 604.741 350.926ZM643.724 384.044C642.739 384.044 641.86 383.962 641.088 383.798C640.316 383.65 639.782 383.502 639.486 383.354L640.964 378.229C642.377 378.59 643.626 378.721 644.71 378.623C645.794 378.524 646.755 378.04 647.593 377.169C648.447 376.315 649.227 374.927 649.934 373.005L651.018 370.048L637.022 332.001H643.33L653.778 362.162H654.172L664.62 332.001H670.928L654.862 375.37C654.139 377.325 653.244 378.943 652.176 380.225C651.108 381.522 649.868 382.483 648.455 383.108C647.059 383.732 645.482 384.044 643.724 384.044Z" fill="#091440"/>
<path fill-rule="evenodd" clip-rule="evenodd" d="M734.402 309.801C743.882 309.801 752.463 313.732 758.643 320.069L773.441 315.6L763.181 325.836C766.547 331.195 768.499 337.56 768.499 344.389C768.499 363.489 753.228 378.977 734.402 378.977C728.306 378.977 722.585 377.35 717.634 374.508L723.285 368.857C726.665 370.442 730.429 371.323 734.397 371.323C749.061 371.323 760.952 359.261 760.952 344.389C760.952 339.665 759.751 335.224 757.642 331.362L715.692 373.303L715.645 373.27L715.622 373.294C715.636 373.294 715.631 373.275 715.604 373.247C713.504 371.838 711.561 370.197 709.823 368.361L709.813 368.356C703.921 362.14 700.301 353.693 700.301 344.394C700.305 325.289 715.576 309.801 734.402 309.801ZM750.08 322.656C745.686 319.388 740.266 317.459 734.402 317.459C719.739 317.459 707.848 329.522 707.848 344.394C707.848 351.579 710.625 358.106 715.145 362.937L745.148 332.41L726.122 338.339L714.514 333.393L750.08 322.656Z" fill="#091440"/>
<path d="M796.152 369.889H786.286L804.25 318.861H815.661L833.65 369.889H823.784L810.155 329.326H809.756L796.152 369.889ZM796.476 349.881H823.385V357.306H796.476V349.881ZM840.371 369.889V318.861H859.507C863.427 318.861 866.716 319.543 869.373 320.905C872.047 322.267 874.066 324.177 875.428 326.635C876.806 329.077 877.496 331.926 877.496 335.181C877.496 338.453 876.798 341.294 875.403 343.702C874.024 346.094 871.989 347.946 869.298 349.259C866.608 350.554 863.302 351.202 859.382 351.202H845.753V343.528H858.136C860.428 343.528 862.305 343.212 863.767 342.581C865.229 341.933 866.309 340.995 867.006 339.766C867.72 338.52 868.078 336.992 868.078 335.181C868.078 333.371 867.72 331.826 867.006 330.547C866.292 329.251 865.204 328.271 863.742 327.607C862.281 326.926 860.395 326.585 858.086 326.585H849.615V369.889H840.371ZM866.732 346.767L879.364 369.889H869.049L856.641 346.767H866.732ZM886.004 369.889V318.861H895.248V342.307H895.871L915.779 318.861H927.065L907.332 341.759L927.24 369.889H916.127L900.904 348.013L895.248 354.69V369.889H886.004ZM976.342 344.375C976.342 349.873 975.312 354.582 973.253 358.502C971.21 362.406 968.419 365.396 964.881 367.472C961.36 369.548 957.365 370.586 952.897 370.586C948.428 370.586 944.425 369.548 940.887 367.472C937.366 365.379 934.575 362.381 932.516 358.477C930.473 354.557 929.451 349.857 929.451 344.375C929.451 338.877 930.473 334.176 932.516 330.273C934.575 326.353 937.366 323.355 940.887 321.278C944.425 319.202 948.428 318.164 952.897 318.164C957.365 318.164 961.36 319.202 964.881 321.278C968.419 323.355 971.21 326.353 973.253 330.273C975.312 334.176 976.342 338.877 976.342 344.375ZM967.049 344.375C967.049 340.505 966.442 337.241 965.23 334.583C964.034 331.909 962.373 329.891 960.247 328.529C958.121 327.15 955.671 326.461 952.897 326.461C950.123 326.461 947.673 327.15 945.546 328.529C943.42 329.891 941.751 331.909 940.538 334.583C939.342 337.241 938.745 340.505 938.745 344.375C938.745 348.245 939.342 351.518 940.538 354.192C941.751 356.849 943.42 358.868 945.546 360.246C947.673 361.608 950.123 362.289 952.897 362.289C955.671 362.289 958.121 361.608 960.247 360.246C962.373 358.868 964.034 356.849 965.23 354.192C966.442 351.518 967.049 348.245 967.049 344.375Z" fill="#091440"/>
<path d="M999.965 369.889H993.487L1012.22 318.861H1018.6L1037.34 369.889H1030.86L1015.61 326.934H1015.21L999.965 369.889ZM1002.36 349.956H1028.47V355.438H1002.36V349.956ZM1061.03 369.889H1045.29V318.861H1061.73C1066.68 318.861 1070.92 319.883 1074.44 321.926C1077.96 323.953 1080.66 326.868 1082.54 330.671C1084.41 334.459 1085.35 338.993 1085.35 344.275C1085.35 349.591 1084.4 354.167 1082.51 358.004C1080.62 361.824 1077.86 364.764 1074.24 366.824C1070.62 368.867 1066.22 369.889 1061.03 369.889ZM1051.47 364.407H1060.63C1064.85 364.407 1068.35 363.593 1071.12 361.966C1073.9 360.338 1075.97 358.021 1077.33 355.014C1078.69 352.008 1079.37 348.428 1079.37 344.275C1079.37 340.156 1078.7 336.61 1077.35 333.636C1076.01 330.647 1074 328.354 1071.32 326.76C1068.65 325.149 1065.32 324.343 1061.33 324.343H1051.47V364.407ZM1095.41 318.861L1110.56 361.816H1111.16L1126.31 318.861H1132.78L1114.05 369.889H1107.67L1088.93 318.861H1095.41ZM1146.91 318.861V369.889H1140.73V318.861H1146.91ZM1200.36 334.807H1194.18C1193.82 333.03 1193.18 331.469 1192.26 330.123C1191.37 328.778 1190.27 327.648 1188.97 326.735C1187.7 325.805 1186.28 325.107 1184.71 324.642C1183.15 324.177 1181.52 323.944 1179.83 323.944C1176.74 323.944 1173.94 324.725 1171.43 326.286C1168.94 327.848 1166.96 330.148 1165.48 333.188C1164.02 336.228 1163.29 339.957 1163.29 344.375C1163.29 348.793 1164.02 352.522 1165.48 355.562C1166.96 358.602 1168.94 360.902 1171.43 362.464C1173.94 364.025 1176.74 364.806 1179.83 364.806C1181.52 364.806 1183.15 364.573 1184.71 364.108C1186.28 363.643 1187.7 362.954 1188.97 362.04C1190.27 361.11 1191.37 359.972 1192.26 358.627C1193.18 357.265 1193.82 355.703 1194.18 353.943H1200.36C1199.9 356.551 1199.05 358.884 1197.82 360.944C1196.59 363.004 1195.06 364.756 1193.24 366.201C1191.41 367.63 1189.36 368.718 1187.08 369.465C1184.82 370.213 1182.41 370.586 1179.83 370.586C1175.48 370.586 1171.61 369.523 1168.22 367.397C1164.83 365.271 1162.17 362.248 1160.22 358.328C1158.28 354.408 1157.31 349.757 1157.31 344.375C1157.31 338.993 1158.28 334.342 1160.22 330.422C1162.17 326.502 1164.83 323.479 1168.22 321.353C1171.61 319.227 1175.48 318.164 1179.83 318.164C1182.41 318.164 1184.82 318.538 1187.08 319.285C1189.36 320.033 1191.41 321.129 1193.24 322.574C1195.06 324.002 1196.59 325.746 1197.82 327.806C1199.05 329.849 1199.9 332.183 1200.36 334.807ZM1210.35 369.889V318.861H1241.14V324.343H1216.53V341.585H1239.55V347.066H1216.53V364.407H1241.54V369.889H1210.35Z" fill="#091440"/>
</svg>
